<?xml version="1.0" standalone="no"?>
<!DOCTYPE svg PUBLIC "-//W3C//DTD SVG 20010904//EN"
 "http://www.w3.org/TR/2001/REC-SVG-20010904/DTD/svg10.dtd">
<svg version="1.0" xmlns="http://www.w3.org/2000/svg"
 width="346.000000pt" height="90.000000pt" viewBox="0 0 346.000000 90.000000"
 preserveAspectRatio="xMidYMid meet">
<metadata>
Created by potrace 1.15, written by Peter Selinger 2001-2017
</metadata>
<g transform="translate(0.000000,90.000000) scale(0.100000,-0.100000)"
fill="#000000" stroke="none">
<path d="M240 852 c-25 -2 -49 -8 -55 -13 -6 -6 -13 -139 -17 -327 -4 -174
-10 -337 -14 -361 -4 -30 -2 -46 6 -51 7 -4 15 -23 19 -41 l7 -34 259 -5 c165
-4 263 -2 267 4 4 6 10 33 13 61 7 50 40 120 69 145 13 10 16 40 16 179 0 106
6 198 16 256 14 81 14 90 0 101 -9 6 -16 25 -16 43 0 17 -6 33 -12 36 -16 5
-497 11 -558 7z m167 -22 c68 -14 138 -20 231 -20 l132 0 0 -25 c0 -21 5 -25
30 -25 17 0 30 -2 30 -4 0 -2 -14 -76 -30 -164 -17 -89 -30 -194 -30 -234 0
-53 -5 -81 -18 -103 -10 -16 -24 -71 -32 -122 -7 -50 -16 -96 -20 -103 -6 -9
-34 -7 -117 9 -76 14 -149 21 -236 21 l-127 0 0 25 c0 21 -5 25 -30 25 -19 0
-30 5 -30 14 0 8 14 86 30 174 26 140 30 183 30 336 l0 176 30 0 c23 0 30 4
30 20 0 25 5 25 127 0z"/>
<path d="M1522 618 c-6 -6 -12 -36 -12 -65 0 -50 -1 -53 -19 -43 -25 13 -92
13 -125 0 -14 -5 -34 -23 -45 -40 l-19 -31 -6 25 c-10 40 -48 59 -107 54 -62
-6 -105 -42 -94 -77 4 -12 14 -25 23 -29 15 -6 13 -11 -10 -34 l-28 -27 0 123
c0 136 -6 150 -57 144 l-28 -3 -5 -138 c-5 -149 -10 -161 -61 -150 -20 4 -30
-1 -43 -18 -20 -29 -20 -34 0 -53 19 -19 92 -21 130 -4 16 7 35 30 45 53 17
38 19 38 19 12 0 -16 10 -38 25 -52 22 -23 32 -25 102 -24 81 1 103 9 103 39
0 15 5 13 29 -11 24 -24 38 -29 76 -29 25 0 56 5 67 11 15 8 26 8 43 -1 12 -6
33 -10 46 -8 20 2 25 10 27 42 l3 38 35 -41 c36 -42 77 -54 100 -31 8 8 19 8
38 0 73 -27 176 4 176 55 0 37 -33 51 -76 30 -26 -12 -39 -13 -54 -5 -37 20
-21 30 48 30 37 0 73 5 79 11 7 7 12 -4 15 -40 7 -67 29 -91 83 -91 22 0 46 5
53 12 9 9 15 9 24 0 16 -16 90 -16 106 0 7 7 12 31 12 55 0 37 3 43 25 48 14
3 37 8 52 11 14 3 39 19 54 35 18 20 30 26 35 18 4 -6 0 -16 -9 -20 -8 -5 -20
-24 -27 -43 -22 -69 25 -120 107 -116 98 5 118 1 128 -23 14 -31 71 -57 125
-57 54 0 104 28 128 70 12 21 22 28 32 23 33 -15 120 -15 150 0 26 14 34 14
58 1 36 -18 106 -18 143 1 47 25 65 98 34 143 -14 19 -14 24 1 47 20 31 14 49
-28 75 -46 28 -97 26 -143 -6 l-38 -25 -22 21 c-30 28 -91 36 -136 17 -35 -14
-47 -14 -160 8 -46 9 -104 -9 -124 -38 -15 -20 -17 -21 -26 -4 -25 43 -102 59
-164 33 -32 -14 -35 -14 -35 3 0 27 -39 72 -76 87 -42 17 -185 19 -202 2 -7
-7 -12 -31 -12 -55 0 -39 -2 -43 -25 -43 -19 0 -25 5 -25 23 0 30 -27 67 -49
67 -25 0 -41 -20 -41 -53 0 -18 -9 -36 -22 -47 -20 -16 -25 -16 -43 -4 -25 18
-102 18 -137 0 -23 -12 -29 -12 -39 0 -18 22 -63 17 -89 -11 -13 -14 -27 -25
-31 -25 -5 0 -9 35 -11 78 l-3 77 -30 3 c-17 2 -36 -3 -43 -10z m781 -27 c42
-16 67 -51 67 -94 0 -69 -31 -98 -122 -111 l-48 -7 0 -55 c0 -53 0 -54 -30
-54 l-30 0 0 158 c0 87 3 162 7 165 10 10 128 8 156 -2z m262 -112 c17 -16 21
-36 23 -114 4 -91 3 -95 -17 -95 -12 0 -24 7 -27 15 -5 13 -8 13 -27 0 -49
-34 -117 -7 -117 46 0 35 32 59 90 66 34 5 40 9 40 30 0 31 -24 39 -67 23 -29
-10 -37 -10 -44 1 -14 22 -11 26 29 43 44 19 89 13 117 -15z m238 14 c35 -5
51 -27 26 -35 -7 -2 -13 -17 -15 -33 -4 -38 -37 -65 -80 -65 -36 0 -53 -14
-28 -24 9 -3 33 -6 55 -6 73 0 102 -59 53 -105 -45 -41 -125 -45 -166 -8 -20
18 -24 58 -7 69 6 3 8 16 5 28 -3 12 1 32 9 43 13 18 13 22 0 33 -8 7 -15 28
-15 46 0 28 6 38 33 55 22 14 41 18 62 14 17 -3 47 -9 68 -12z m196 6 c34 -12
61 -53 61 -94 0 -25 -1 -25 -75 -25 -79 0 -89 -7 -61 -45 11 -15 21 -17 68
-12 45 6 57 4 62 -8 7 -19 -42 -45 -84 -45 -65 0 -120 55 -120 121 0 37 30 87
63 103 38 19 45 19 86 5z m220 0 c49 -17 38 -44 -19 -44 -33 0 -45 -4 -48 -17
-2 -11 8 -20 35 -28 76 -25 94 -69 48 -115 -27 -28 -80 -33 -118 -14 -29 16
-28 14 -21 33 5 12 14 15 45 10 74 -12 91 24 21 47 -21 6 -43 16 -49 22 -19
14 -16 71 5 89 33 29 56 33 101 17z m-1964 -29 c15 -16 20 -42 23 -110 4 -88
-1 -103 -26 -78 -9 9 -15 9 -24 0 -7 -7 -29 -12 -50 -12 -29 0 -41 6 -54 25
-9 13 -13 33 -9 44 7 24 63 51 104 51 26 0 31 4 31 24 0 27 -24 56 -46 56 -8
0 -28 -7 -44 -15 -35 -18 -40 -3 -8 19 32 22 81 20 103 -4z m639 -2 c14 -13
28 -35 32 -50 l6 -28 -86 0 c-95 0 -100 -4 -71 -60 17 -33 70 -49 103 -31 34
18 49 12 23 -9 -33 -28 -93 -26 -127 3 -22 19 -28 34 -32 80 -4 52 -2 58 26
87 38 38 89 41 126 8z"/>
</g>
</svg>
