<?xml version="1.0" standalone="no"?>
<!DOCTYPE svg PUBLIC "-//W3C//DTD SVG 20010904//EN"
 "http://www.w3.org/TR/2001/REC-SVG-20010904/DTD/svg10.dtd">
<svg version="1.0" xmlns="http://www.w3.org/2000/svg"
 width="187.000000pt" height="90.000000pt" viewBox="0 0 187.000000 90.000000"
 preserveAspectRatio="xMidYMid meet">
<metadata>
Created by potrace 1.15, written by Peter Selinger 2001-2017
</metadata>
<g transform="translate(0.000000,90.000000) scale(0.100000,-0.100000)"
fill="#000000" stroke="none">
<path d="M1522 788 c-5 -7 -15 -82 -20 -167 -10 -136 -14 -155 -32 -168 -14
-10 -20 -25 -20 -53 l0 -38 -29 29 c-21 20 -39 29 -62 29 -52 0 -21 18 36 22
l50 3 3 73 c3 70 2 74 -28 103 -29 30 -34 31 -95 27 -56 -3 -65 -2 -65 13 0
26 -25 41 -67 37 -28 -2 -41 -9 -48 -25 -11 -26 -4 -25 -300 -25 -108 0 -158
-3 -179 -14 -24 -12 -32 -11 -57 1 -33 18 -102 20 -131 4 -16 -9 -23 -7 -35
10 -36 52 -145 68 -213 33 -40 -21 -70 -72 -70 -118 0 -42 37 -95 84 -118 34
-17 48 -18 129 -9 60 6 105 5 129 -1 36 -10 78 -4 130 18 14 7 17 0 20 -41 3
-46 4 -48 35 -51 l32 -3 3 -72 3 -72 75 -2 c41 -2 96 -6 121 -9 30 -4 58 -1
82 10 33 13 41 13 74 -1 25 -10 50 -13 78 -8 22 3 91 6 154 6 70 -1 119 4 128
10 10 9 13 3 13 -34 0 -72 15 -80 128 -75 77 4 98 8 109 23 19 27 16 43 -12
69 -24 22 -25 29 -25 129 0 94 -2 107 -19 120 -17 11 -21 33 -31 168 -7 85
-16 160 -22 167 -6 6 -18 12 -28 12 -10 0 -22 -6 -28 -12z m39 -70 c0 -24 6
-115 13 -203 9 -119 14 -152 20 -127 16 66 27 31 24 -80 l-3 -113 -65 0 -65 0
-3 113 c-3 109 9 148 23 81 4 -17 8 -29 10 -27 2 2 9 92 16 201 7 108 16 197
21 197 4 0 8 -19 9 -42z m-1156 -78 c14 -13 25 -27 25 -32 0 -12 -68 -10 -75
2 -10 16 -62 12 -79 -6 -22 -21 -20 -50 4 -74 24 -24 49 -25 76 -5 19 14 18
14 -3 15 -16 0 -23 6 -23 20 0 17 7 20 50 20 l50 0 0 -56 c0 -56 0 -56 -27
-51 -14 3 -39 1 -54 -5 -58 -20 -139 24 -154 83 -9 34 17 84 53 104 40 23 125
15 157 -15z m206 -46 c10 -9 19 -28 19 -41 0 -22 -4 -23 -61 -23 -44 0 -59 -3
-56 -12 4 -13 28 -14 85 -2 37 7 41 -4 12 -31 -15 -13 -36 -19 -72 -19 -43 0
-54 4 -74 28 -13 15 -24 35 -24 44 0 24 28 62 54 73 30 13 94 4 117 -17z m195
-5 c53 -50 11 -122 -71 -122 -103 0 -130 109 -35 146 27 11 82 -2 106 -24z
m160 17 c5 -12 9 -12 32 0 29 15 64 18 76 7 4 -4 23 -6 42 -4 l34 3 0 -76 c0
-95 -16 -116 -88 -116 -46 0 -92 20 -92 41 0 13 47 11 69 -3 22 -14 51 -4 51
17 0 13 -4 14 -20 5 -47 -25 -123 31 -105 77 4 11 -3 13 -28 11 -31 -3 -32 -5
-35 -50 -3 -46 -5 -48 -33 -48 l-29 0 0 70 0 71 40 -3 c22 -1 43 1 46 5 12 12
34 8 40 -7z m441 -12 c7 -10 13 -42 13 -72 l0 -54 -32 3 c-18 1 -47 -1 -64 -5
-44 -10 -84 8 -84 38 0 31 17 44 68 52 62 10 51 25 -13 18 -47 -6 -55 -5 -50
8 10 25 47 38 99 34 33 -2 54 -9 63 -22z m-517 -179 c0 -22 -4 -25 -35 -25
l-35 0 0 -75 0 -75 -35 0 -35 0 0 75 0 75 -35 0 c-31 0 -35 3 -35 25 l0 25
105 0 105 0 0 -25z m408 -8 c3 -25 6 -27 40 -21 56 8 75 -11 80 -85 l4 -61
-36 0 -36 0 0 49 c0 31 -5 51 -12 54 -28 9 -38 -6 -38 -54 l0 -49 -35 0 -35 0
0 93 c0 52 3 97 7 101 4 4 19 6 33 4 19 -2 26 -10 28 -31z m-315 -29 c28 -15
46 -38 47 -60 0 -15 -10 -18 -66 -18 -58 0 -65 -2 -54 -15 14 -17 46 -20 55
-5 3 6 17 10 31 10 38 0 26 -31 -18 -48 -31 -12 -43 -12 -80 -1 -48 16 -66 47
-54 93 11 45 91 70 139 44z m207 -3 c17 -9 30 -22 30 -30 0 -18 -42 -20 -69
-3 -15 9 -23 9 -35 -1 -38 -31 1 -85 40 -56 24 18 64 19 64 2 0 -50 -110 -69
-155 -27 -75 70 28 165 125 115z"/>
</g>
</svg>
