<?xml version="1.0" standalone="no"?>
<!DOCTYPE svg PUBLIC "-//W3C//DTD SVG 20010904//EN"
 "http://www.w3.org/TR/2001/REC-SVG-20010904/DTD/svg10.dtd">
<svg version="1.0" xmlns="http://www.w3.org/2000/svg"
 width="75.000000pt" height="75.000000pt" viewBox="0 0 75.000000 75.000000"
 preserveAspectRatio="xMidYMid meet">
<metadata>
Created by potrace 1.15, written by Peter Selinger 2001-2017
</metadata>
<g transform="translate(0.000000,75.000000) scale(0.100000,-0.100000)"
fill="#000000" stroke="none">
<path d="M242 732 c-100 -38 -196 -141 -227 -241 -26 -86 -18 -208 19 -284 36
-74 108 -146 180 -180 50 -24 68 -27 161 -27 93 0 111 3 161 27 72 34 144 106
180 180 37 76 45 198 19 284 -31 103 -130 205 -233 242 -62 22 -201 22 -260
-1z m178 -82 c3 -1 13 -2 22 -1 17 2 98 -35 98 -45 0 -2 -9 0 -20 6 -14 7 -20
7 -20 0 0 -9 22 -15 44 -11 12 2 37 -20 31 -29 -2 -4 2 -16 11 -26 14 -18 15
-18 4 4 -17 34 -4 26 25 -15 26 -39 33 -69 13 -57 -7 4 -8 3 -4 -5 4 -6 12 -8
18 -5 7 5 9 1 5 -9 -3 -9 -1 -18 6 -20 9 -3 9 -10 -1 -27 -8 -12 -10 -20 -5
-17 4 3 9 -17 10 -44 1 -28 -2 -49 -8 -49 -6 0 -8 -4 -4 -10 12 -19 -67 -152
-82 -137 -2 3 8 17 22 33 14 15 24 34 23 41 -4 21 -23 16 -23 -6 0 -10 -8 -28
-18 -39 -11 -12 -16 -25 -13 -31 9 -14 -92 -64 -115 -58 -11 3 -17 2 -14 -3 5
-9 -94 -11 -110 -2 -5 3 -20 7 -33 8 -35 4 -85 36 -88 57 -1 11 -6 22 -10 25
-4 4 -4 -2 0 -13 14 -40 -43 27 -69 79 -29 61 -34 176 -9 234 19 47 63 104 74
97 5 -3 12 0 16 6 4 8 3 9 -4 5 -7 -4 -12 -5 -12 -2 0 14 81 58 95 52 10 -3
13 -2 10 4 -4 7 3 9 19 6 15 -3 24 -1 21 5 -5 7 74 6 95 -1z"/>
<path d="M503 443 c-12 -32 -27 -76 -33 -98 -17 -57 -26 -62 -26 -15 1 22 4
40 9 40 4 0 7 4 7 8 0 15 -75 35 -122 33 -47 -2 -48 -2 -44 27 2 16 6 34 10
41 13 20 -10 12 -30 -11 -40 -46 -46 -75 -25 -123 25 -56 64 -77 134 -74 45 3
52 0 55 -16 2 -16 1 -17 -7 -5 -5 8 -13 11 -18 7 -8 -9 15 -27 36 -27 8 0 11
7 8 20 -7 26 5 26 21 0 17 -27 36 -27 22 0 -6 11 -8 25 -5 30 3 6 1 10 -5 10
-6 0 -10 10 -8 23 2 17 11 23 36 25 27 3 34 -1 42 -22 5 -14 7 -33 4 -41 -4
-8 -2 -15 2 -16 47 -4 62 -3 58 3 -3 4 0 8 5 8 6 0 11 5 11 10 0 6 -9 10 -19
10 -16 0 -26 19 -51 98 -18 53 -36 101 -40 105 -4 4 -16 -18 -27 -50z"/>
</g>
</svg>
